<svg width="32" height="32" viewBox="0 0 24 24" fill="none" xmlns="http://www.w3.org/2000/svg">
<path d="M12 2L15 8L21 9L17 14L18 20L12 17L6 20L7 14L3 9L9 8L12 2Z" fill="none" stroke="#D97706" stroke-width="2" stroke-linecap="round" stroke-linejoin="round"/>
<path d="M2 12C2 12 4 10 7 11C10 12 11 15 11 15" stroke="#D97706" stroke-width="1.5" stroke-linecap="round"/>
<path d="M14 9C14 9 17 8 20 10" stroke="#D97706" stroke-width="1.5" stroke-linecap="round"/>
<path d="M7 19C7 19 8 21 11 21C14 21 15 19 15 19" stroke="#D97706" stroke-width="1.5" stroke-linecap="round"/>
<path d="M6.5 13C5 11.5 3 10 3 8C3 6 4.5 4 7 4C8.5 4 10 5 10.5 6C11 5 12.5 4 14 4C16.5 4 18 6 18 8C18 10 16 11.5 14.5 13L10.5 17L6.5 13Z" fill="#D97706" fill-opacity="0.1"/>
<path d="M16 12L20 8" stroke="#D97706" stroke-width="1.5" stroke-linecap="round"/>
<path d="M5 8L9 12" stroke="#D97706" stroke-width="1.5" stroke-linecap="round"/>
</svg>
